<svg xmlns="http://www.w3.org/2000/svg" viewBox="0 0 64 64" aria-hidden="true" class="turtle-svg">
  <defs>
    <linearGradient id="shellGradTop" x1="30%" y1="0%" x2="70%" y2="100%">
      <stop offset="0%" stop-color="#52B788"/>
      <stop offset="45%" stop-color="#40916C"/>
      <stop offset="100%" stop-color="#2D6A4F"/>
    </linearGradient>
    <radialGradient id="shellSheen" cx="40%" cy="30%" r="55%">
      <stop offset="0%" stop-color="#95D5B2" stop-opacity="0.45"/>
      <stop offset="100%" stop-color="#2D6A4F" stop-opacity="0"/>
    </radialGradient>
  </defs>
  <g class="turtle-orient">
    <g class="turtle-sway">
      <g class="turtle-body">
        <g class="turtle-bubbles" aria-hidden="true">
          <circle class="turtle-bubble turtle-bubble-1" cx="50" cy="46" r="1.5" fill="#B7E4C7" opacity="0"/>
          <circle class="turtle-bubble turtle-bubble-2" cx="54" cy="40" r="1.1" fill="#D8F3DC" opacity="0"/>
          <circle class="turtle-bubble turtle-bubble-3" cx="47" cy="52" r="0.9" fill="#B7E4C7" opacity="0"/>
        </g>
        <g class="turtle-fin turtle-fin-back-right">
          <path d="M46 48c5 2 8 5 9 9 0 2-1 3-3 3-2 0-4-2-6-5-2-3-3-6-2-7Z" fill="#40916C"/>
          <path d="M48 50l4 3M49 54l5 1" stroke="#2D6A4F" stroke-width="0.7" stroke-linecap="round" fill="none" opacity="0.6"/>
        </g>
        <g class="turtle-fin turtle-fin-back-left">
          <path d="M18 48c-5 2-8 5-9 9 0 2 1 3 3 3 2 0 4-2 6-5 2-3 3-6 2-7Z" fill="#40916C"/>
          <path d="M16 50l-4 3M15 54l-5 1" stroke="#2D6A4F" stroke-width="0.7" stroke-linecap="round" fill="none" opacity="0.6"/>
        </g>
        <path class="turtle-tail" d="M32 54c-2 2-2 5 0 7 2-1 4-1 6 0 2-2 3-4 2-2-1-4-3-4-5 0-2 1-4 2-4Z" fill="#52B788"/>
        <ellipse class="turtle-shell-back" cx="32" cy="36" rx="19" ry="21" fill="url(#shellGradTop)"/>
        <ellipse cx="32" cy="36" rx="19" ry="21" fill="url(#shellSheen)"/>
        <g class="turtle-scutes">
          <path d="M32 18c-4 0-7 2-8 5 2-1 4-1 6 0 2-1 4-1 6 0-1-3-4-5-8-5Z" fill="#52B788" opacity="0.92"/>
          <path d="M32 24c-6 0-10 2-12 6 3-1 6-2 9-2s6 1 9 2c-2-4-6-6-12-6Z" fill="#40916C" opacity="0.88"/>
          <path d="M20 34c-1 3 0 7 2 10 3-2 6-3 10-3s7 1 10 3c2-3 3-7 2-10-4 2-8 3-12 3s-8-1-12-3Z" fill="#52B788" opacity="0.82"/>
          <path d="M24 44c1 2 4 3 8 3s7-1 8-3c-2 1-5 1-8 1s-6 0-8-1Z" fill="#40916C" opacity="0.78"/>
          <path d="M32 20v28" stroke="#1B4332" stroke-width="0.65" opacity="0.32"/>
          <path d="M24 28h16M22 36h20M24 44h16" stroke="#1B4332" stroke-width="0.45" opacity="0.25"/>
          <path d="M26 24l6 4 6-4M24 34l8 5 8-5M26 42l6 3 6-3" stroke="#1B4332" stroke-width="0.4" opacity="0.22" fill="none"/>
          <ellipse class="turtle-shell-rim" cx="32" cy="36" rx="18" ry="20" fill="none" stroke="#74C69D" stroke-width="1.3" opacity="0.62"/>
        </g>
        <g class="turtle-fin turtle-fin-front-left">
          <path d="M14 26c-4 3-7 7-7 11 1 2 3 3 5 2 3-1 5-4 6-8 1-3 0-5-4-5Z" fill="#52B788"/>
          <path d="M12 30l5 2M11 35l6 0" stroke="#2D6A4F" stroke-width="0.75" stroke-linecap="round" fill="none" opacity="0.6"/>
        </g>
        <g class="turtle-fin turtle-fin-front-right">
          <path d="M50 26c4 3 7 7 7 11-1 2-3 3-5 2-3-1-5-4-6-8-1-3 0-5 4-5Z" fill="#52B788"/>
          <path d="M52 30l-5 2M53 35l-6 0" stroke="#2D6A4F" stroke-width="0.75" stroke-linecap="round" fill="none" opacity="0.6"/>
        </g>
        <g class="turtle-head">
          <ellipse cx="32" cy="13" rx="9" ry="7.5" fill="#74C69D"/>
          <ellipse cx="32" cy="13.5" rx="7.5" ry="6" fill="#95D5B2" opacity="0.5"/>
        </g>
      </g>
    </g>
  </g>
</svg>
